<svg width="10" height="9" viewBox="0 0 10 9" fill="none" xmlns="http://www.w3.org/2000/svg">
<path d="M5.07908 2.36253C3.85934 2.36253 2.87549 3.34637 2.87549 4.56611C2.87549 5.78585 3.85934 6.76969 5.07908 6.76969C6.29881 6.76969 7.28266 5.78585 7.28266 4.56611C7.28266 3.34637 6.29881 2.36253 5.07908 2.36253ZM5.07908 5.99873C4.29085 5.99873 3.64646 5.35626 3.64646 4.56611C3.64646 3.77597 4.28893 3.13349 5.07908 3.13349C5.86922 3.13349 6.51169 3.77597 6.51169 4.56611C6.51169 5.35626 5.8673 5.99873 5.07908 5.99873ZM7.88678 2.27239C7.88678 2.55814 7.65664 2.78637 7.3728 2.78637C7.08704 2.78637 6.85882 2.55623 6.85882 2.27239C6.85882 1.98855 7.08896 1.75841 7.3728 1.75841C7.65664 1.75841 7.88678 1.98855 7.88678 2.27239ZM9.34624 2.79404C9.31364 2.10554 9.15638 1.49567 8.65199 0.993197C8.14952 0.490726 7.53965 0.333464 6.85115 0.298944C6.14155 0.258669 4.01468 0.258669 3.30508 0.298944C2.6185 0.331547 2.00863 0.488808 1.50424 0.991279C0.999856 1.49375 0.844512 2.10362 0.809991 2.79212C0.769717 3.50172 0.769717 5.62859 0.809991 6.33818C0.842594 7.02668 0.999856 7.63655 1.50424 8.13902C2.00863 8.64149 2.61658 8.79876 3.30508 8.83328C4.01468 8.87355 6.14155 8.87355 6.85115 8.83328C7.53965 8.80067 8.14952 8.64341 8.65199 8.13902C9.15446 7.63655 9.31172 7.02668 9.34624 6.33818C9.38652 5.62859 9.38652 3.50363 9.34624 2.79404ZM8.42952 7.09956C8.27993 7.47545 7.99034 7.76505 7.61253 7.91655C7.04677 8.14094 5.70429 8.08916 5.07908 8.08916C4.45386 8.08916 3.10947 8.13902 2.54562 7.91655C2.16973 7.76696 1.88014 7.47737 1.72863 7.09956C1.50424 6.5338 1.55603 5.19132 1.55603 4.56611C1.55603 3.9409 1.50616 2.5965 1.72863 2.03266C1.87822 1.65677 2.16781 1.36717 2.54562 1.21567C3.11138 0.991279 4.45386 1.04306 5.07908 1.04306C5.70429 1.04306 7.04869 0.993197 7.61253 1.21567C7.98842 1.36526 8.27801 1.65485 8.42952 2.03266C8.65391 2.59842 8.60212 3.9409 8.60212 4.56611C8.60212 5.19132 8.65391 6.53572 8.42952 7.09956Z" fill="white"/>
</svg>
