<svg width="8" height="6" viewBox="0 0 8 6" fill="none" xmlns="http://www.w3.org/2000/svg">
<path d="M6.53607 1.67019C6.54035 1.72998 6.54035 1.78979 6.54035 1.84958C6.54035 3.67338 5.15221 5.77483 2.6151 5.77483C1.83347 5.77483 1.10737 5.54844 0.496582 5.15551C0.607638 5.16831 0.714407 5.17259 0.829736 5.17259C1.47468 5.17259 2.06839 4.95476 2.54249 4.58317C1.93598 4.57035 1.4277 4.17313 1.25258 3.62641C1.33801 3.63921 1.42343 3.64776 1.51313 3.64776C1.637 3.64776 1.76087 3.63067 1.87618 3.60078C1.24405 3.47264 0.769928 2.91739 0.769928 2.24681V2.22973C0.953583 2.33224 1.16716 2.3963 1.39352 2.40484C1.02192 2.1571 0.778474 1.73426 0.778474 1.25588C0.778474 0.999609 0.846801 0.764693 0.966402 0.559673C1.64553 1.39683 2.66635 1.94354 3.81103 2.00334C3.78967 1.90083 3.77686 1.79406 3.77686 1.68728C3.77686 0.926997 4.39191 0.307678 5.15646 0.307678C5.55368 0.307678 5.91246 0.474255 6.16446 0.743342C6.47625 0.683547 6.77524 0.568219 7.04006 0.410188C6.93754 0.730536 6.71972 0.999623 6.43355 1.17046C6.71118 1.14058 6.98027 1.06368 7.22799 0.956907C7.04009 1.23025 6.80516 1.4737 6.53607 1.67019Z" fill="black"/>
</svg>
