<svg width="11" height="9" viewBox="0 0 11 9" fill="none" xmlns="http://www.w3.org/2000/svg">
<path d="M9.22033 2.87595C9.22656 2.96317 9.22656 3.05041 9.22656 3.13764C9.22656 5.79805 7.20166 8.86346 3.50073 8.86346C2.36054 8.86346 1.30137 8.53323 0.4104 7.96005C0.572399 7.97873 0.728146 7.98496 0.896378 7.98496C1.83717 7.98496 2.70322 7.66722 3.39481 7.12516C2.51008 7.10647 1.76864 6.52703 1.51319 5.72952C1.63781 5.7482 1.76241 5.76067 1.89326 5.76067C2.07394 5.76067 2.25464 5.73574 2.42285 5.69214C1.50074 5.50521 0.809136 4.69526 0.809136 3.71707V3.69216C1.07704 3.84169 1.38859 3.93515 1.71878 3.94759C1.17673 3.58622 0.821602 2.9694 0.821602 2.27158C0.821602 1.89776 0.921271 1.55508 1.09574 1.25602C2.08639 2.47719 3.57549 3.27468 5.24524 3.36193C5.2141 3.21239 5.1954 3.05665 5.1954 2.90088C5.1954 1.79184 6.0926 0.888428 7.20785 0.888428C7.78729 0.888428 8.31064 1.13142 8.67825 1.52394C9.13306 1.43672 9.5692 1.26848 9.95551 1.03796C9.80595 1.50526 9.48821 1.89778 9.07077 2.14698C9.47576 2.10339 9.86828 1.99122 10.2296 1.83547C9.95554 2.23421 9.61285 2.58933 9.22033 2.87595Z" fill="white"/>
</svg>
