<svg width="7" height="7" viewBox="0 0 7 7" fill="none" xmlns="http://www.w3.org/2000/svg">
<path d="M3.3577 2.31823C2.52153 2.31823 1.84708 2.99269 1.84708 3.82886C1.84708 4.66503 2.52153 5.33949 3.3577 5.33949C4.19388 5.33949 4.86833 4.66503 4.86833 3.82886C4.86833 2.99269 4.19388 2.31823 3.3577 2.31823ZM3.3577 4.81097C2.81735 4.81097 2.3756 4.37053 2.3756 3.82886C2.3756 3.28719 2.81603 2.84676 3.3577 2.84676C3.89938 2.84676 4.33981 3.28719 4.33981 3.82886C4.33981 4.37053 3.89806 4.81097 3.3577 4.81097ZM5.28247 2.25644C5.28247 2.45234 5.12471 2.60879 4.93013 2.60879C4.73423 2.60879 4.57778 2.45102 4.57778 2.25644C4.57778 2.06186 4.73555 1.90409 4.93013 1.90409C5.12471 1.90409 5.28247 2.06186 5.28247 2.25644ZM6.28299 2.61405C6.26064 2.14206 6.15283 1.72397 5.80705 1.37951C5.46259 1.03505 5.04451 0.927246 4.57252 0.903581C4.08607 0.875971 2.62803 0.875971 2.14158 0.903581C1.6709 0.925931 1.25282 1.03374 0.907041 1.3782C0.561266 1.72266 0.454773 2.14074 0.431107 2.61273C0.403498 3.09919 0.403498 4.55723 0.431107 5.04368C0.453458 5.51567 0.561266 5.93375 0.907041 6.27821C1.25282 6.62267 1.66959 6.73048 2.14158 6.75415C2.62803 6.78175 4.08607 6.78175 4.57252 6.75415C5.04451 6.73179 5.46259 6.62399 5.80705 6.27821C6.15151 5.93375 6.25932 5.51567 6.28299 5.04368C6.3106 4.55723 6.3106 3.1005 6.28299 2.61405ZM5.65454 5.56563C5.552 5.82331 5.35347 6.02184 5.09447 6.1257C4.70662 6.27953 3.78631 6.24403 3.3577 6.24403C2.9291 6.24403 2.00747 6.27821 1.62094 6.1257C1.36325 6.02315 1.16473 5.82463 1.06086 5.56563C0.907041 5.17778 0.942539 4.25747 0.942539 3.82886C0.942539 3.40026 0.908356 2.47863 1.06086 2.0921C1.16341 1.83441 1.36194 1.63589 1.62094 1.53202C2.00879 1.3782 2.9291 1.4137 3.3577 1.4137C3.78631 1.4137 4.70794 1.37951 5.09447 1.53202C5.35216 1.63457 5.55068 1.8331 5.65454 2.0921C5.80837 2.47995 5.77287 3.40026 5.77287 3.82886C5.77287 4.25747 5.80837 5.17909 5.65454 5.56563Z" fill="black"/>
</svg>
