<svg width="7" height="7" viewBox="0 0 7 7" fill="none" xmlns="http://www.w3.org/2000/svg">
<path d="M5.58657 0.884644H0.958709C0.791338 0.884644 0.630822 0.951131 0.512473 1.06948C0.394124 1.18783 0.327637 1.34834 0.327637 1.51572L0.327637 6.14358C0.327637 6.31095 0.394124 6.47147 0.512473 6.58981C0.630822 6.70816 0.791338 6.77465 0.958709 6.77465H2.76318V4.77218H1.9349V3.82965H2.76318V3.11128C2.76318 2.29417 3.24963 1.84282 3.99469 1.84282C4.35151 1.84282 4.72463 1.90645 4.72463 1.90645V2.70844H4.31352C3.90845 2.70844 3.7821 2.95982 3.7821 3.21764V3.82965H4.68637L4.54175 4.77218H3.7821V6.77465H5.58657C5.75394 6.77465 5.91446 6.70816 6.03281 6.58981C6.15116 6.47147 6.21764 6.31095 6.21764 6.14358V1.51572C6.21764 1.34834 6.15116 1.18783 6.03281 1.06948C5.91446 0.951131 5.75394 0.884644 5.58657 0.884644Z" fill="black"/>
</svg>
