<svg width="9" height="9" viewBox="0 0 9 9" fill="none" xmlns="http://www.w3.org/2000/svg">
<path d="M7.82561 0.271606H1.07485C0.830707 0.271606 0.59656 0.368593 0.423922 0.541231C0.251284 0.713869 0.154297 0.948017 0.154297 1.19216L0.154297 7.94292C0.154297 8.18706 0.251284 8.42121 0.423922 8.59385C0.59656 8.76649 0.830707 8.86347 1.07485 8.86347H3.70707V5.94243H2.49884V4.56754H3.70707V3.51964C3.70707 2.32771 4.41667 1.66932 5.5035 1.66932C6.024 1.66932 6.56828 1.76214 6.56828 1.76214V2.93202H5.96858C5.37769 2.93202 5.19339 3.29871 5.19339 3.67479V4.56754H6.51247L6.30151 5.94243H5.19339V8.86347H7.82561C8.06975 8.86347 8.3039 8.76649 8.47654 8.59385C8.64918 8.42121 8.74616 8.18706 8.74616 7.94292V1.19216C8.74616 0.948017 8.64918 0.713869 8.47654 0.541231C8.3039 0.368593 8.06975 0.271606 7.82561 0.271606Z" fill="white"/>
</svg>
