<svg width="15" height="12" viewBox="0 0 15 12" fill="none" xmlns="http://www.w3.org/2000/svg">
<path d="M12.7389 7.46864H5.34002L5.50522 8.21551H12.28C12.6687 8.21551 12.9568 8.54929 12.8707 8.8998L12.7315 9.46639C13.2032 9.67815 13.5285 10.1253 13.5285 10.6428C13.5285 11.3711 12.8844 11.9602 12.0943 11.9497C11.3416 11.9397 10.7225 11.3748 10.7022 10.6789C10.6911 10.2988 10.8558 9.95425 11.1263 9.70921H5.83482C6.09674 9.94648 6.25946 10.277 6.25946 10.6428C6.25946 11.3853 5.5899 11.9832 4.77864 11.9484C4.0583 11.9175 3.47246 11.3792 3.4346 10.7133C3.40537 10.1991 3.698 9.74579 4.1426 9.50933L2.36958 1.49373H0.605754C0.271201 1.49373 0 1.24295 0 0.93358V0.560148C0 0.250783 0.271201 0 0.605754 0H3.19356C3.48132 0 3.72935 0.187206 3.78702 0.447885L4.01837 1.49373H13.9321C14.3208 1.49373 14.6089 1.82751 14.5228 2.17802L13.3296 7.03264C13.2669 7.28767 13.0218 7.46864 12.7389 7.46864ZM10.1723 4.48119H9.08631V3.08082C9.08631 2.92614 8.95069 2.80074 8.78343 2.80074H8.17768C8.01041 2.80074 7.8748 2.92614 7.8748 3.08082V4.48119H6.78876C6.51892 4.48119 6.38379 4.78287 6.5746 4.9593L8.26639 6.52372C8.38467 6.63309 8.57644 6.63309 8.69474 6.52372L10.3865 4.9593C10.5773 4.78287 10.4422 4.48119 10.1723 4.48119Z" fill="black"/>
</svg>
