<svg width="18" height="14" viewBox="0 0 18 14" fill="none" xmlns="http://www.w3.org/2000/svg">
<path d="M17.0935 9.45588H16.657V6.55668C16.657 6.21607 16.5179 5.88887 16.2724 5.6475L13.5473 2.96822C13.3018 2.72684 12.9691 2.59006 12.6226 2.59006H11.4197V1.30272C11.4197 0.592002 10.8332 0.0153809 10.1103 0.0153809H3.12716C2.40429 0.0153809 1.81781 0.592002 1.81781 1.30272V2.59006H0.290245C0.170222 2.59006 0.0720215 2.68661 0.0720215 2.80462V3.23373C0.0720215 3.35174 0.170222 3.44829 0.290245 3.44829H7.70986C7.82988 3.44829 7.92808 3.54484 7.92808 3.66285V4.09196C7.92808 4.20997 7.82988 4.30652 7.70986 4.30652H1.16314C1.04312 4.30652 0.944917 4.40307 0.944917 4.52107V4.95019C0.944917 5.06819 1.04312 5.16474 1.16314 5.16474H6.83696C6.95698 5.16474 7.05518 5.26129 7.05518 5.3793V5.80841C7.05518 5.92642 6.95698 6.02297 6.83696 6.02297H0.290245C0.170222 6.02297 0.0720215 6.11952 0.0720215 6.23753V6.66664C0.0720215 6.78465 0.170222 6.8812 0.290245 6.8812H5.96407C6.08409 6.8812 6.18229 6.97775 6.18229 7.09575V7.52487C6.18229 7.64287 6.08409 7.73942 5.96407 7.73942H1.81781V11.1723C1.81781 12.5938 2.99077 13.747 4.4365 13.747C5.88223 13.747 7.05518 12.5938 7.05518 11.1723H10.5468C10.5468 12.5938 11.7197 13.747 13.1655 13.747C14.6112 13.747 15.7841 12.5938 15.7841 11.1723H17.0935C17.3335 11.1723 17.5299 10.9792 17.5299 10.7432V9.88499C17.5299 9.64898 17.3335 9.45588 17.0935 9.45588ZM4.4365 12.4597C3.71363 12.4597 3.12716 11.8831 3.12716 11.1723C3.12716 10.4616 3.71363 9.88499 4.4365 9.88499C5.15937 9.88499 5.74584 10.4616 5.74584 11.1723C5.74584 11.8831 5.15937 12.4597 4.4365 12.4597ZM13.1655 12.4597C12.4426 12.4597 11.8561 11.8831 11.8561 11.1723C11.8561 10.4616 12.4426 9.88499 13.1655 9.88499C13.8883 9.88499 14.4748 10.4616 14.4748 11.1723C14.4748 11.8831 13.8883 12.4597 13.1655 12.4597ZM15.3477 6.8812H11.4197V3.8774H12.6226L15.3477 6.55668V6.8812Z" fill="black"/>
</svg>
